{"title":"Gangster.Squad.2013.DVDRip.x264.AC3.RoSubbed-playSD","uid":12289050,"size":892264593,"categoryP":"video","categoryS":"movies","magnet":"?xt=urn:btih:f0565ce601fc4b184e288fe40795ffa717b7ddd5&amp;dn=Gangster.Squad.2013.DVDRip.x264.AC3.RoSubbed-playSD&amp;tr=udp%3A%2F%2Ftracker.openbittorrent.com%3A80&amp;tr=udp%3A%2F%2Fopen.demonii.com%3A1337&amp;tr=udp%3A%2F%2Ftracker.coppersurfer.tk%3A6969&amp;tr=udp%3A%2F%2Fexodus.desync.com%3A6969","seeders":0,"leechers":0,"uploader":"TvTeam","files":5,"time":1440522122,"description":"------------------------------------------------------------------------\n\n &lt;a href=&quot; https://www.torrenting.com&quot; rel=&quot;nofollow&quot; target=&quot;_NEW&quot;&gt; https://www.torrenting.com&lt;/a&gt;\n\nSign up is OPEN - for time being. Come and have fun.\n\n------------------------------------------------------------------------General\nUnique ID                                : 207856925949465195135484031417649746870 (0x9C5FC9AC2CDBEF039892A2AB17C053B6)\nComplete name                            : D:filelistSDGangster.Squad.2013.DVDRip.x264.AC3.RoSubbed-playSDGangster.Squad.2013.DVDRip.x264.AC3.RoSubbed-playSD.mkv\nFormat                                   : Matroska\nFormat version                           : Version 2\nFile size                                : 842 MiB\nDuration                                 : 1h 52mn\nOverall bit rate                         : 1 043 Kbps\nEncoded date                             : UTC 2015-08-22 23:38:54\nWriting application                      : mkvmerge v7.7.0 ('Six Voices') 32bit built on Feb 28 2015 23:23:00\nWriting library                          : libebml v1.3.1 + libmatroska v1.4.2\n_STATISTICS_WRITING_APP                  : mkvmerge v7.7.0 ('Six Voices') 32bit built on Feb 28 2015 23:23:00\n_STATISTICS_WRITING_DATE_UTC             : 2015-08-22 23:38:54\n_STATISTICS_TAGS                         : BPS DURATION NUMBER_OF_FRAMES NUMBER_OF_BYTES\nDURATION                                 : 01:52:54.624000000\nNUMBER_OF_FRAMES                         : 211707\nNUMBER_OF_BYTES                          : 325181952\n\nVideo\nID                                       : 1\nFormat                                   : AVC\nFormat/Info                              : Advanced Video Codec\nFormat profile                           : &lt;a class=&quot;__cf_email__&quot; href=&quot;/cdn-cgi/l/email-protection&quot; data-cfemail=&quot;f9b1909e91b9b5cad7c9&quot;&gt;[email&amp;#160;protected]&lt;/a&gt;&lt;script data-cfhash='f9e31' type=&quot;text/javascript&quot;&gt;\n/* &lt;![CDATA[ */!function(){try{var t=&quot;currentScript&quot;in document?document.currentScript:function(){for(var t=document.getElementsByTagName(&quot;script&quot;),e=t.length;e--;)if(t[e].getAttribute(&quot;data-cfhash&quot;))return t[e]}();if(t&amp;&amp;t.previousSibling){var e,r,n,i,c=t.previousSibling,a=c.getAttribute(&quot;data-cfemail&quot;);if(a){for(e=&quot;&quot;,r=parseInt(a.substr(0,2),16),n=2;a.length-n;n+=2)i=parseInt(a.substr(n,2),16)^r,e+=String.fromCharCode(i);e=document.createTextNode(e),c.parentNode.replaceChild(e,c)}t.parentNode.removeChild(t);}}catch(u){}}()/* ]]&gt; */&lt;/script&gt;\nFormat settings, CABAC                   : Yes\nFormat settings, ReFrames                : 4 frames\nCodec ID                                 : V_MPEG4/ISO/AVC\nDuration                                 : 1h 52mn\nBit rate                                 : 638 Kbps\nWidth                                    : 720 pixels\nHeight                                   : 306 pixels\nDisplay aspect ratio                     : 2.35:1\nFrame rate                               : 23.976 fps\nColor space                              : YUV\nChroma subsampling                       : 4:2:0\nBit depth                                : 8 bits\nScan type                                : Progressive\nBits/(Pixel*Frame)                       : 0.121\nStream size                              : 516 MiB (61%)\nWriting library                          : x264 core 146 r2538 121396c\nEncoding settings                        : cabac=1 / ref=5 / deblock=1:-3:-3 / analyse=0x3:0x113 / me=umh / subme=8 / psy=1 / psy_rd=0.00:0.00 / mixed_ref=1 / me_range=16 / chroma_me=1 / trellis=2 / 8x8dct=1 / cqm=0 / deadzone=21,11 / fast_pskip=1 / chroma_qp_offset=0 / threads=6 / lookahead_threads=1 / sliced_threads=0 / nr=0 / decimate=1 / interlaced=0 / bluray_compat=0 / constrained_intra=0 / bframes=5 / b_pyramid=1 / b_adapt=2 / b_bias=0 / direct=3 / weightb=1 / open_gop=0 / weightp=2 / keyint=240 / keyint_min=23 / scenecut=40 / intra_refresh=0 / rc_lookahead=50 / rc=crf / mbtree=1 / crf=18.0 / qcomp=0.60 / qpmin=0 / qpmax=69 / qpstep=4 / ip_ratio=1.40 / aq=1:1.00\nDefault                                  : Yes\nForced                                   : No\n\nAudio\nID                                       : 2\nFormat                                   : AC-3\nFormat/Info                              : Audio Coding 3\nMode extension                           : CM (complete main)\nCodec ID                                 : A_AC3\nDuration                                 : 1h 52mn\nBit rate mode                            : Constant\nBit rate                                 : 384 Kbps\nChannel(s)                               : 6 channels\nChannel positions                        : Front: L C R, Side: L R, LFE\nSampling rate                            : 48.0 KHz\nBit depth                                : 16 bits\nCompression mode                         : Lossy\nStream size                              : 310 MiB (37%)\nDefault                                  : Yes\nForced                                   : No","torrent":{"xt":"urn:btih:f0565ce601fc4b184e288fe40795ffa717b7ddd5","amp;dn":"Gangster.Squad.2013.DVDRip.x264.AC3.RoSubbed-playSD","amp;tr":["udp%3A%2F%2Ftracker.openbittorrent.com%3A80","udp%3A%2F%2Fopen.demonii.com%3A1337","udp%3A%2F%2Ftracker.coppersurfer.tk%3A6969","udp%3A%2F%2Fexodus.desync.com%3A6969"],"infoHash":"f0565ce601fc4b184e288fe40795ffa717b7ddd5","infoHashBuffer":{"type":"Buffer","data":[240,86,92,230,1,252,75,24,78,40,143,228,7,149,255,167,23,183,221,213]},"announce":[],"urlList":[]}}